<?xml version="1.0" encoding="utf-8"?>
<!-- Generator: Adobe Illustrator 16.0.0, SVG Export Plug-In . SVG Version: 6.00 Build 0)  -->
<!DOCTYPE svg PUBLIC "-//W3C//DTD SVG 1.1//EN" "http://www.w3.org/Graphics/SVG/1.1/DTD/svg11.dtd">
<svg version="1.1" id="Layer_1" xmlns="http://www.w3.org/2000/svg" xmlns:xlink="http://www.w3.org/1999/xlink" x="0px" y="0px"
	 width="3685.04px" height="1697.131px" viewBox="0 0 3685.04 1697.131" enable-background="new 0 0 3685.04 1697.131"
	 xml:space="preserve">
<rect x="-3938.562" y="477.055" width="841.89" height="595.28"/>
<g>
	<path d="M-4407.067-1530.511c-3.647,1.824-10.942,3.647-20.289,3.647c-21.657,0-37.956-13.678-37.956-38.868
		c0-24.05,16.299-40.35,40.122-40.35c9.574,0,15.616,2.052,18.237,3.419l-2.394,8.093c-3.762-1.823-9.119-3.191-15.502-3.191
		c-18.009,0-29.978,11.512-29.978,31.688c0,18.807,10.829,30.889,29.521,30.889c6.041,0,12.196-1.253,16.186-3.191
		L-4407.067-1530.511z"/>
	<path d="M-4394.987-1565.959c0-6.497-0.114-12.082-0.456-17.211h8.777l0.342,10.829h0.456c2.508-7.409,8.549-12.083,15.274-12.083
		c1.14,0,1.938,0.114,2.849,0.342v9.46c-1.025-0.228-2.051-0.342-3.419-0.342c-7.067,0-12.082,5.357-13.45,12.88
		c-0.228,1.368-0.456,2.964-0.456,4.673v29.408h-9.917V-1565.959z"/>
	<path d="M-4311.552-1543.049c0,5.699,0.114,10.714,0.456,15.046h-8.891l-0.57-9.005h-0.228
		c-2.622,4.445-8.435,10.259-18.237,10.259c-8.663,0-19.035-4.788-19.035-24.165v-32.257h10.03v30.548
		c0,10.486,3.191,17.553,12.31,17.553c6.725,0,11.398-4.673,13.222-9.119c0.57-1.482,0.912-3.306,0.912-5.129v-33.853h10.03
		V-1543.049z"/>
	<path d="M-4283.741-1598.672c0.114,3.419-2.394,6.155-6.383,6.155c-3.533,0-6.041-2.735-6.041-6.155
		c0-3.534,2.622-6.269,6.269-6.269C-4286.135-1604.941-4283.741-1602.206-4283.741-1598.672z M-4294.912-1528.003v-55.168h10.03
		v55.168H-4294.912z"/>
	<path d="M-4269.608-1538.261c2.963,1.938,8.207,3.989,13.222,3.989c7.295,0,10.715-3.647,10.715-8.207
		c0-4.787-2.85-7.409-10.259-10.144c-9.917-3.534-14.59-9.005-14.59-15.616c0-8.891,7.181-16.186,19.035-16.186
		c5.585,0,10.487,1.596,13.564,3.42l-2.507,7.295c-2.166-1.368-6.155-3.192-11.285-3.192c-5.927,0-9.232,3.419-9.232,7.523
		c0,4.56,3.306,6.611,10.486,9.347c9.575,3.647,14.476,8.435,14.476,16.642c0,9.688-7.523,16.527-20.631,16.527
		c-6.042,0-11.626-1.481-15.502-3.761L-4269.608-1538.261z"/>
	<path d="M-4217.519-1553.763c0.228,13.564,8.891,19.149,18.921,19.149c7.181,0,11.512-1.254,15.274-2.85l1.709,7.181
		c-3.533,1.596-9.575,3.419-18.351,3.419c-16.983,0-27.128-11.17-27.128-27.812s9.802-29.75,25.874-29.75
		c18.009,0,22.796,15.844,22.796,25.988c0,2.052-0.228,3.647-0.342,4.673H-4217.519z M-4188.111-1560.944
		c0.114-6.383-2.622-16.3-13.906-16.3c-10.145,0-14.59,9.347-15.388,16.3H-4188.111z"/>
</g>
<path fill="#039BAE" d="M-1232.772-3124.876l47.936-29.656c0,0,28.031-99.123-56.061-93.029l-40.219,49.561
	C-1281.116-3198.001-1230.741-3194.343-1232.772-3124.876z"/>
<path fill="#33BDBC" d="M-1240.897-3247.562c0,0-113.748,39.813-153.559,150.311c0,0-42.25,114.559,41.436,101.561
	c0,0,86.123-33.313,116.186-60.938c0,0-16.25,102.373,81.248,51.186c0,0-34.938,6.5-32.5-109.684c0,0-78.811,65.809-131.621,84.498
	c0,0-52.813-4.063-20.313-69.875C-1340.021-3100.503-1283.958-3204.501-1240.897-3247.562z"/>
<path fill="#33BDBC" d="M-1896.009-3078.843c-22.971,65.086-77.811,105.066-122.486,89.301c-44.68-15.77-62.277-81.314-39.305-146.4
	c22.971-65.084,77.809-105.064,122.486-89.297C-1890.636-3209.47-1873.038-3143.927-1896.009-3078.843z"/>
<path fill="#039BAE" d="M-1997.12-3164.909c0,0,59.039,27.625,49.289,125.123c0,0,71.586-137.121,20.357-182.037
	C-1927.474-3221.823-1957.04-3230.448-1997.12-3164.909z"/>
<path d="M-1997.12-3164.909c0,0-60.668,120.789-11.377,168.455c0,0,23.293,11.918,60.666-43.332
	C-1947.831-3039.786-1932.663-3131.327-1997.12-3164.909z"/>
<g>
	<path fill="#039BAE" d="M-1695.278-3110.726l36.277-29.684c0,0,33.736-117.535-50.354-111.441l-40.219,49.561
		C-1749.573-3202.29-1693.249-3180.194-1695.278-3110.726z"/>
	<path fill="#33BDBC" d="M-1698.79-3014.384c16.482-7.838,33.232-21.443,51.455-24.236c-4.93-16.225-8.385-41.484-7.561-80.795
		c0,0-78.811,65.809-131.623,84.498c0,0-52.811-4.064-20.313-69.875c0,0,56.063-103.996,99.125-147.059
		c0,0-113.748,39.811-153.559,150.309c0,0-42.25,114.561,41.436,101.563c0,0,86.123-33.313,116.184-60.938
		C-1703.646-3060.917-1707.956-3033.729-1698.79-3014.384z"/>
	<path fill="#33BDBC" d="M-1654.708-3119.513c0,0,69.703,541.721-177.676,427.926c0,0-53.836-95.363-61.258-168.07
		c0,0,237.082,299.533,182.479-195.021L-1654.708-3119.513z"/>
</g>
<path fill="#33BDBC" d="M-2490.151-3012.478l-10.25,147.219l-68.951,36.34c0,0,36.34-401.594-13.045-432.342l46.123-26.09
	c0,0,28.42,71.746,34.941,121.131L-2490.151-3012.478z"/>
<path fill="#33BDBC" d="M-2315.401-3099.239c-25.959,73.553-87.934,118.734-138.422,100.918
	c-50.488-17.822-70.375-91.893-44.416-165.445c25.959-73.551,87.932-118.732,138.42-100.912
	C-2309.331-3246.86-2289.442-3172.79-2315.401-3099.239z"/>
<path fill="#039BAE" d="M-2429.667-3196.501c0,0,66.721,31.219,55.701,141.398c0,0,80.898-154.957,23.006-205.717
	C-2350.96-3260.819-2384.372-3270.567-2429.667-3196.501z"/>
<path d="M-2429.667-3196.501c0,0-68.559,136.502-12.855,190.365c0,0,26.322,13.471,68.557-48.967
	C-2373.966-3055.103-2356.825-3158.55-2429.667-3196.501z"/>
<g>
	<path fill="#33BDBC" d="M-1635.128-3219.097c0,0,90.182-17.063,53.621,230.326l56.059-18.234l15.844-146.283
		C-1509.604-3153.288-1537.636-3292.216-1635.128-3219.097z"/>
	<path fill="#33BDBC" d="M-1514.011-3110.495c34.629-49.188,86.697-6.047,86.697-6.047c4.947-25.791,24.943-57.686,24.943-57.686
		c-11.543-6.67-37.434-12.355-37.434-12.355c-56.068-11.053-83.428,30.572-83.428,30.572l3.869,58.318L-1514.011-3110.495z"/>
</g>
<g>
	<path fill="#039BAE" d="M-2239.955-2407.76c0,0-51.184,173.094-65.809,184.063c0,0,31.686-9.75,49.965-37.779L-2239.955-2407.76z"
		/>
	<path fill="#33BDBC" d="M-2305.764-2223.698c0,0-47.041,42.328-77.916-8.859c0,0-11.375-10.166-9.75-67.645l8.125-101.351
		l59.311-24.444C-2325.994-2425.997-2344.033-2242.465-2305.764-2223.698z"/>
</g>
<path fill="#33BDBC" d="M-3466.031-2451.774c0,0,36.586-6.441,60.793-83.221l12.207-28.779
	C-3393.031-2563.774-3355.031-2437.774-3466.031-2451.774z"/>
<g>
	<path fill="#FFFFFF" d="M836.298,231.544c0,8.96-6.957,16.224-15.533,16.224H713.639c-8.579,0-15.533-7.264-15.533-16.224l0,0
		c0-8.961,6.954-16.226,15.533-16.226h107.126C829.341,215.318,836.298,222.583,836.298,231.544L836.298,231.544z"/>
	<path fill="#FFFFFF" d="M994.07,532.834c-8.962,0-16.225-6.293-16.225-14.055v-96.934c0-7.763,7.263-14.054,16.225-14.054l0,0
		c8.96,0,16.225,6.291,16.225,14.054v96.934C1010.295,526.541,1003.03,532.834,994.07,532.834L994.07,532.834z"/>
	<path fill="#FFFFFF" d="M540.333,532.834c-8.961,0-16.226-6.293-16.226-14.055v-96.934c0-7.763,7.265-14.054,16.226-14.054l0,0
		c8.961,0,16.226,6.291,16.226,14.054v96.934C556.559,526.541,549.294,532.834,540.333,532.834L540.333,532.834z"/>
	<path fill="#FFFFFF" d="M451.935,636.339c-8.958,0-16.224-6.295-16.224-14.055V525.35c0-7.763,7.266-14.055,16.224-14.055l0,0
		c8.961,0,16.227,6.292,16.227,14.055v96.935C468.161,630.044,460.896,636.339,451.935,636.339L451.935,636.339z"/>
	<path fill="#FFFFFF" d="M1080.789,636.897c-8.96,0-16.226-6.293-16.226-14.054v-96.935c0-7.763,7.266-14.054,16.226-14.054l0,0
		c8.96,0,16.225,6.291,16.225,14.054v96.935C1097.014,630.604,1089.749,636.897,1080.789,636.897L1080.789,636.897z"/>
	<path fill="#FFFFFF" d="M515.156,1139.869L401.023,748.233c0,0-8.952-21.259,16.784-30.212l331.211-132.035
		c0,0,14.92-12.31,35.435,0l334.939,136.511c0,0,16.784,2.239,10.071,25.736l-109.284,395.741c0,0,51.098-23.126,83.547-9.699
		c0,0,19.023-5.596,71.614,34.687c0,0,31.33,29.094,92.873,12.309c0,0,20.141-8.951,23.499-13.428c0,0,13.426-20.141,33.569,0
		c0,0,4.474,14.547-7.834,23.499c0,0-90.636,71.242-177.914-5.595c0,0-58.187-46.997-123.085-2.238c0,0-80.159,66.02-153.653,22.379
		l-52.356-32.449c0,0-44.637-20.143-83.8-1.119c0,0-44.759,30.212-67.137,39.164c0,0-21.262,10.804-45.878,9.318
		c0,0-42.521,1.871-60.424-12.676c0,0-46.996-39.164-64.898-39.723c0,0-50.354-9.511-72.173,5.035c0,0-41.668,30.535-73.851,43.08
		c0,0-46.996,12.867-73.292,1.118c0,0-40.842-12.308-58.745-35.247c0,0-4.476-11.749,7.273-23.497c0,0,11.19-8.394,28.533,10.069
		c0,0,33.569,24.059,64.34,17.905c0,0,20.515-1.12,32.079-7.833c0,0,24.989-12.309,32.074-19.771c0,0,38.044-32.45,83.55-29.841
		C458.09,1129.423,500.238,1130.918,515.156,1139.869z"/>
	<path fill="#FFFFFF" d="M749.019,247.768v154.709l-224.911,93.992v49.233l224.911-90.636c0,0,23.871-8.95,35.435,0l225.842,90.636
		v-54.828l-225.842-87.278V247.768H749.019z"/>
	<path fill="#FFFFFF" d="M749.019,494.232L435.711,622.284v49.861l313.308-126.443c0,0,14.92-4.475,35.435,0l312.561,126.443
		v-49.302L784.453,494.232C784.453,494.232,765.803,480.805,749.019,494.232z"/>
	<path fill="#FFFFFF" d="M1293.39,1277.502c0,0,16.784-13.429,25.738,0c0,0,6.712,7.832,0,19.58c0,0,3.356,7.834-59.306,33.011
		c0,0-46.996,11.189-92.313-12.868c0,0-49.795-39.165-72.174-39.165c0,0-40.282-8.951-68.815,11.19c0,0-38.045,38.766-94.552,43.439
		c0,0-53.71,6.354-111.336-40.083c0,0-50.913-35.805-105.742-2.797c0,0-42.519,44.387-108.538,43.172
		c0,0-38.044,3.824-91.754-38.695c0,0-51.472-37.484-111.896-2.238c0,0-34.128,40.09-104.063,41.024c0,0-54.265,0.376-89.235-36.549
		c0,0-8.673-32.45,24.895-21.261c0,0,45.877,33.009,86.16,20.142c0,0,28.533-1.865,47.555-23.874c0,0,30.771-27.599,87.279-27.039
		c0,0,19.582-3.357,74.969,19.582c0,0,38.604,37.485,77.77,34.688c0,0,37.484,11.749,91.193-38.604c0,0,24.639-17.902,66.03-18.463
		c0,0,37.473-4.476,97.897,36.365c0,0,22.938,24.059,59.863,20.702c0,0,43.079-1.119,71.613-29.653c0,0,39.724-32.178,82.803-27.558
		c43.079,4.621,59.304,11.334,95.111,38.188C1172.543,1279.739,1219.538,1321.141,1293.39,1277.502z"/>
	<path d="M784.453,1123.646c0,8.96-7.934,16.224-17.717,16.224l0,0c-9.783,0-17.718-7.264-17.718-16.224V755.507
		c0-8.96,7.935-16.224,17.718-16.224l0,0c9.783,0,17.717,7.264,17.717,16.224V1123.646z"/>
	<rect x="749.019" y="1127.893" fill="#FFFFFF" width="35.435" height="21.261"/>
</g>
<g>
	<path fill="#039AB7" d="M1648.643,617.023l18.908-63.261l37.024-56.995c103.478-40.553,153.818,22.373,153.818,22.373
		l22.374,127.249l-67.122,83.899l-2.328,3.265l-23.772-73.183C1787.545,660.371,1753.985,613.296,1648.643,617.023z"/>
	<path fill="#34BEC2" d="M1707.402,495.034c0,0-236.846,178.898-194.351,498.691c0,0,32.89,69.576,69.333,77.587
		c0,0,126.061,19.66,245.359-206.73c0,0-63.342,94.356-138.687,110.525c0,0-98.743-39.497-72.323-229.984
		C1616.734,745.123,1651.703,567.98,1707.402,495.034z"/>
</g>
<g>
	<path fill="#33BDBC" d="M2590.785,1060.96c0,0-126.104,23.856-74.983-322.075l-78.386,25.5l-22.154,204.554
		C2415.262,968.938,2454.457,1163.206,2590.785,1060.96z"/>
	<g>
		<path fill="#039BAE" d="M2437.416,764.385c0,0-71.571,242.043-92.021,257.381c0,0,44.306-13.633,69.867-52.827L2437.416,764.385z"
			/>
		<path fill="#33BDBC" d="M2345.395,1021.766c0,0-65.78,59.189-108.954-12.388c0,0-15.905-14.216-13.634-94.59l11.361-141.724
			l82.938-34.18C2317.105,738.885,2291.881,995.523,2345.395,1021.766z"/>
	</g>
</g>
<g>
	<polygon fill="#2FBDBD" points="3156.725,770.594 3177.175,714.921 2962.445,786.499 2937.453,850.121 2966.99,850.121 	"/>
	<path fill="#039BAE" d="M2966.99,850.121c0,0,217.002-23.101,210.185,83.692l28.024-36.354v-35.597
		c0,0-30.117-50.611-129.051-57.496L2966.99,850.121z"/>
	<path fill="#33BDBC" d="M3205.199,897.459c0,0-24.993,118.154-170.417,150.726c0,0-146.938,56.805-210.559-15.15l12.118,22.724
		c0,0-74.982-57.563-3.028-161.331c0,0-61.354,148.454,71.193,157.543c0,0,54.536,12.877,129.519-20.447l-14.389-3.029
		C3019.637,1028.493,3133.999,1009.558,3205.199,897.459z"/>
</g>
<g>
	<path fill="#33BDBC" d="M1874.783,743.772c0,0,126.105-23.86,74.983,322.073l78.386-25.502l22.155-204.549
		C2050.308,835.795,2011.113,641.527,1874.783,743.772z"/>
	<path fill="#33BDBC" d="M2044.146,895.633c48.427-68.78,121.233-8.455,121.233-8.455c6.917-36.064,34.878-80.664,34.878-80.664
		c-16.141-9.326-52.345-17.276-52.345-17.276c-78.398-15.456-116.66,42.747-116.66,42.747l5.411,81.551L2044.146,895.633z"/>
</g>
<g>
	<path fill="#039BAE" d="M3451.613,877.274c0,0,1.968-92.511-71.523-101.572c0,0,50.604-66.334,58.715-67.48
		c0,0,111.327-23.543,79.68,130.167L3451.613,877.274z"/>
	<path fill="#33BDBC" d="M3318.492,885.616c0,0,125.967-11.952,199.992-48.685c0,0-192.135,124.89-224.912,96.069L3318.492,885.616z
		"/>
	<path fill="#33BDBC" d="M3443.891,707.692c0,0-156.724,48.975-210.976,201.18c0,0-51.989,115.282,16.579,146.175
		c0,0,27.876,18.835,103.222-26.372c0,0,129.602-64.802,165.769-115.283V889.28c0,0-103.225,84.391-180.835,117.543
		c0,0-61.033,2.258-39.558-75.348C3298.092,931.476,3397.928,727.283,3443.891,707.692z"/>
</g>
<polygon fill="#33BDBC" points="2656.083,548.229 2599.14,605.242 2687.183,682.988 2759.745,615.608 "/>
<path fill="#33BDBC" d="M2803.238,1036.002c0,0-126.104,23.855-74.983-322.076l-78.385,25.5l-22.156,204.555
	C2627.714,943.98,2666.908,1138.248,2803.238,1036.002z"/>
</svg>
